<?xml version="1.0" encoding="utf-8"?>
<svg viewBox="0 0 1307.53 239.1" xmlns="http://www.w3.org/2000/svg">
  <defs>
    <clipPath id="a">
      <path fill="none" d="M0 0h1307.53v239.1H0z"/>
    </clipPath>
  </defs>
  <path fill="none" d="M0 0h1307.53v239.1H0z"/>
  <g clip-path="url(#a)">
    <path fill="none" stroke="#272a2a" stroke-linecap="round" stroke-miterlimit="10" stroke-width="9.5" d="M4.72 4.59h1298.15v229.94H4.72z"/>
    <path fill="#272a2a" d="M589.44 69.37v66.73c0 11.76-3.55 21-10.65 27.72-7.1 6.73-16.86 10.09-29.27 10.09s-22.02-3.39-28.82-10.16c-6.8-6.77-10.19-16.08-10.19-27.93V69.37h11.99v67.3c0 8.61 2.35 15.21 7.05 19.82 4.7 4.61 11.62 6.91 20.74 6.91s15.4-2.32 20.1-6.95c4.7-4.63 7.05-11.27 7.05-19.93V69.37h11.99ZM704.24 172.5h-14.11l-37.6-50.01-10.79 9.59v40.42h-11.99V69.37h11.99v51.14l46.77-51.14h14.18l-41.48 44.79 43.03 58.34ZM805.91 172.5H791.8l-37.6-50.01-10.79 9.59v40.42h-11.99V69.37h11.99v51.14l46.77-51.14h14.18l-41.48 44.79 43.03 58.34ZM919.72 120.79c0 16.51-4.17 29.49-12.52 38.94s-19.95 14.18-34.81 14.18-26.91-4.64-35.17-13.93c-8.25-9.29-12.38-22.4-12.38-39.33s4.14-29.8 12.42-39.04c8.28-9.24 20.03-13.86 35.27-13.86s26.38 4.7 34.71 14.11c8.32 9.41 12.49 22.39 12.49 38.94Zm-82.18 0c0 13.97 2.97 24.56 8.92 31.78 5.95 7.22 14.59 10.83 25.92 10.83s20.06-3.6 25.89-10.79c5.83-7.19 8.75-17.8 8.75-31.81s-2.9-24.39-8.71-31.57c-5.81-7.17-14.4-10.76-25.78-10.76s-20.12 3.61-26.06 10.83c-5.95 7.22-8.92 17.72-8.92 31.5ZM1036.27 172.5h-13.69l-56.36-86.55h-.56c.75 10.16 1.13 19.47 1.13 27.93v58.62h-11.08V69.37h13.54l56.22 86.2h.56c-.09-1.27-.31-5.35-.63-12.24-.33-6.89-.45-11.82-.35-14.78V69.37h11.22V172.5ZM1135.12 172.5h-57.49V69.37h57.49v10.65h-45.5v33.22h42.75v10.58h-42.75v37.95h45.5v10.72ZM1251.54 172.5h-13.69l-56.36-86.55h-.56c.75 10.16 1.13 19.47 1.13 27.93v58.62h-11.08V69.37h13.54l56.22 86.2h.56c-.09-1.27-.31-5.35-.63-12.24-.33-6.89-.45-11.82-.35-14.78V69.37h11.22V172.5Z"/>
    <path fill="#272a2a" fill-rule="evenodd" d="M459.28 220.27H19.82V19.28h439.47v200.99Zm-353.32-94.93a.5.5 0 0 0-.41-.23H88.51a.49.49 0 0 0-.39.79l5.44 7.27c1.29 1.81 2.35 3.46 3.17 4.93.82 1.47 1.48 2.87 1.96 4.2a20.8 20.8 0 0 1 1.02 4.02c.2 1.35.3 2.83.3 4.44 0 3.14-.7 5.53-2.09 7.17-1.4 1.63-3.42 2.45-6.07 2.45-1.68 0-3.11-.37-4.27-1.12s-2.1-1.85-2.79-3.33c-.7-1.47-1.2-3.27-1.5-5.41-.3-2.14-.46-4.6-.46-7.38v-5.02h-10.8c-.47 2.18-.81 4.2-1.05 6.08-.23 1.87-.35 3.92-.35 6.14 0 2.74.33 5.42.99 8.04.66 2.62 1.81 4.96 3.44 7.01 1.63 2.06 3.81 3.71 6.55 4.96 2.74 1.25 6.19 1.87 10.34 1.87 3.37 0 6.39-.55 9.08-1.66s4.98-2.69 6.88-4.75c1.9-2.06 3.36-4.55 4.38-7.5 1.02-2.94 1.53-6.25 1.53-9.92 0-4.43-.79-8.64-2.36-12.61-1.34-3.37-3.16-6.85-5.47-10.47Zm298.4.27a.5.5 0 0 0-.14-.35.5.5 0 0 0-.35-.14h-13.52a.5.5 0 0 0-.35.14.5.5 0 0 0-.14.35v18.15c0 3.22-.17 5.9-.51 8.01-.34 2.12-.84 3.82-1.5 5.11-.66 1.29-1.5 2.2-2.52 2.72s-2.21.79-3.57.79-2.61-.26-3.65-.79-1.9-1.43-2.58-2.72c-.68-1.29-1.19-2.99-1.53-5.11s-.51-4.79-.51-8.01v-18.15a.49.49 0 0 0-.49-.49h-13.58a.49.49 0 0 0-.49.49v12.04c0 5.16.36 9.6 1.07 13.33.72 3.73 1.67 6.86 2.87 9.4 1.2 2.54 2.58 4.59 4.14 6.14 1.56 1.55 3.18 2.75 4.86 3.6 1.68.85 3.38 1.4 5.1 1.66s3.31.39 4.78.39c1.33 0 2.81-.14 4.46-.42 1.65-.28 3.3-.86 4.97-1.72 1.67-.87 3.3-2.08 4.89-3.63 1.59-1.55 3-3.61 4.22-6.17 1.22-2.56 2.2-5.68 2.95-9.37.75-3.69 1.13-8.09 1.13-13.21v-12.04Zm-201.02 0a.5.5 0 0 0-.14-.35.5.5 0 0 0-.35-.14h-13.04a.5.5 0 0 0-.35.14.5.5 0 0 0-.14.35v13.92c0 5.08.35 9.4 1.05 12.97.7 3.57 1.64 6.56 2.82 8.98 1.18 2.42 2.52 4.33 4.03 5.74s3.06 2.49 4.67 3.24c1.61.75 3.21 1.22 4.81 1.42 1.59.2 3.05.3 4.38.3s2.79-.1 4.41-.3c1.61-.2 3.23-.68 4.86-1.42 1.63-.75 3.21-1.82 4.73-3.24s2.87-3.33 4.06-5.74 2.13-5.42 2.85-9.01c.72-3.59 1.07-7.9 1.07-12.94v-13.92a.5.5 0 0 0-.14-.35.5.5 0 0 0-.35-.14h-12.88a.5.5 0 0 0-.35.14.5.5 0 0 0-.14.35v18.09c0 3.22-.17 5.91-.51 8.04-.34 2.14-.84 3.84-1.5 5.11-.66 1.27-1.5 2.18-2.52 2.72s-2.21.82-3.57.82-2.53-.27-3.52-.82c-.99-.54-1.79-1.45-2.42-2.72-.63-1.27-1.08-2.97-1.37-5.11-.29-2.14-.43-4.82-.43-8.04v-18.09Zm-46.63 0a.5.5 0 0 0-.14-.35.5.5 0 0 0-.35-.14h-12.93a.5.5 0 0 0-.35.14.5.5 0 0 0-.14.35v45.66h13.91v-45.66Zm114.42 0a.5.5 0 0 0-.14-.35.5.5 0 0 0-.35-.14h-12.93a.5.5 0 0 0-.35.14.5.5 0 0 0-.14.35v45.66h14.45c2.19 0 4.45-.07 6.8-.21 2.35-.14 4.64-.57 6.88-1.3 2.24-.73 4.35-1.84 6.34-3.36 1.99-1.51 3.73-3.62 5.24-6.32 1.5-2.7 2.7-6.13 3.57-10.28.88-4.15 1.32-9.21 1.32-15.18v-9.02a.49.49 0 0 0-.49-.49h-13.58a.49.49 0 0 0-.49.49v10.29c0 4.84-.18 8.84-.54 12-.36 3.16-1.01 5.66-1.96 7.5-.95 1.83-2.24 3.11-3.87 3.84s-3.7 1.09-6.21 1.09h-3.55V125.6Zm66.32 45.45h-13.86v-45.45c0-.27.22-.49.49-.49h12.88c.27 0 .49.22.49.49v45.45Zm0-103.05h-13.86v45.45c0 .27.22.49.49.49h12.88c.27 0 .49-.22.49-.49V68.01Zm66.41 45.93c.27 0 .49-.22.49-.49v-12.37c0-5.28-.37-9.79-1.1-13.51-.73-3.73-1.71-6.85-2.93-9.37-1.22-2.52-2.62-4.51-4.19-5.99-1.58-1.47-3.2-2.58-4.86-3.33-1.67-.75-3.33-1.23-5-1.45-1.67-.22-3.18-.33-4.54-.33-1.43 0-2.99.12-4.67.36-1.68.24-3.38.76-5.08 1.54-1.7.79-3.33 1.93-4.89 3.42-1.56 1.49-2.95 3.5-4.16 6.02-.44.92-.85 1.91-1.23 2.98-.18.51-.18.5-.32.93-.53 1.63-.99 3.43-1.38 5.4-.73 3.69-1.1 8.13-1.1 13.33v12.37c0 .27.22.49.49.49h13.58c.27 0 .49-.22.49-.49V96.78c0-3.31.17-6.07.51-8.28.34-2.22.85-4 1.53-5.35s1.54-2.31 2.58-2.87 2.26-.85 3.65-.85 2.55.28 3.57.85 1.86 1.52 2.52 2.87c.66 1.35 1.16 3.13 1.5 5.35.34 2.22.51 4.98.51 8.28v16.67c0 .13.05.26.14.35a.5.5 0 0 0 .35.14h13.52ZM203.33 68h-14.02v45.45c0 .13.05.26.14.35a.5.5 0 0 0 .35.14h13.04a.5.5 0 0 0 .35-.14.5.5 0 0 0 .14-.35V68Zm68.33 0h-14.45v45.45c0 .13.05.26.14.35a.5.5 0 0 0 .35.14h12.93a.5.5 0 0 0 .35-.14.5.5 0 0 0 .14-.35V79.43h3.55c2.51 0 4.58.36 6.21 1.09 1.63.73 2.92 2.01 3.87 3.84.95 1.83 1.6 4.33 1.96 7.5.36 3.16.54 7.17.54 12v9.59c0 .27.22.49.49.49h13.58c.27 0 .49-.22.49-.49v-8.81c0-5.97-.44-11.01-1.32-15.15-.54-2.55-1.18-4.85-1.99-6.86q-.29-.72-.35-.85c-.39-.92-.8-1.77-1.24-2.57-1.5-2.72-3.25-4.84-5.24-6.35-1.99-1.51-4.1-2.63-6.34-3.36a27.34 27.34 0 0 0-6.88-1.3c-2.35-.14-4.61-.21-6.8-.21Zm-38.62 0h-13.86v45.45c0 .13.05.26.14.35a.5.5 0 0 0 .35.14h12.88a.5.5 0 0 0 .35-.14.5.5 0 0 0 .14-.35V68Zm-61.62 0h-43.41v12.33h14.77v33.11c0 .13.05.26.14.35a.5.5 0 0 0 .35.14h12.93a.5.5 0 0 0 .35-.14.5.5 0 0 0 .14-.35V80.33h14.72V68Zm-74.69 45.94c.19 0 .36-.1.44-.27.08-.17.07-.36-.04-.51-2.02-2.75-8.66-11.78-8.66-11.78-.68-1.01-1.29-1.98-1.83-2.9-.54-.93-.99-1.88-1.37-2.87-.38-.99-.66-2.07-.86-3.24-.2-1.17-.3-2.48-.3-3.93 0-2.74.64-4.93 1.93-6.56s3.24-2.45 5.86-2.45c3.15 0 5.43 1.46 6.82 4.38 1.4 2.92 2.1 7.12 2.1 12.61v4.9h10.75c.39-2.26.74-4.32 1.05-6.2s.46-3.92.46-6.14c0-2.62-.33-5.23-.99-7.83-.66-2.6-1.8-4.95-3.41-7.04-1.61-2.1-3.77-3.79-6.47-5.08s-6.08-1.93-10.13-1.93c-3.33 0-6.31.57-8.95 1.72-2.63 1.15-4.84 2.76-6.64 4.84-1.79 2.08-3.16 4.55-4.11 7.41-.95 2.86-1.42 6.01-1.42 9.43 0 4.27.7 8.29 2.1 12.06 1.4 3.77 3.38 7.51 5.96 11.22l.13.17h17.59Z"/>
  </g>
</svg>